<svg width="27" height="24" viewBox="0 0 27 24" fill="none" xmlns="http://www.w3.org/2000/svg">
<path fill-rule="evenodd" clip-rule="evenodd" d="M10.7131 0.693134C11.2623 1.2423 11.2623 2.1327 10.7131 2.68187L5.14498 8.25H17.2187C22.1374 8.25 26.125 12.2374 26.125 17.1563V21.8438C26.125 22.6204 25.4954 23.25 24.7187 23.25C23.9421 23.25 23.3125 22.6204 23.3125 21.8438V17.1563C23.3125 13.7908 20.5842 11.0625 17.2187 11.0625H5.14498L10.7131 16.6307C11.2623 17.1799 11.2623 18.0701 10.7131 18.6193C10.1639 19.1685 9.27355 19.1685 8.72438 18.6193L0.755627 10.6506C0.206458 10.1015 0.206458 9.21105 0.755627 8.66188L8.72438 0.693134C9.27355 0.143965 10.1639 0.143965 10.7131 0.693134Z" fill="white"/>
</svg>
