<svg width="98" height="81" viewBox="0 0 98 81" fill="none" xmlns="http://www.w3.org/2000/svg">
<path d="M49 50.5406C49.5444 50.5406 50.0712 50.4563 50.5803 50.2875C51.092 50.1188 51.5181 49.8938 51.8583 49.6125L70.6417 34.0875C71.3903 33.4688 71.7646 32.6813 71.7646 31.725C71.7646 30.7688 71.3903 29.9813 70.6417 29.3625C69.8931 28.7438 68.9403 28.4344 67.7833 28.4344C66.6264 28.4344 65.6736 28.7438 64.925 29.3625L49 42.525L33.075 29.3625C32.3264 28.7438 31.3736 28.4344 30.2167 28.4344C29.0597 28.4344 28.1069 28.7438 27.3583 29.3625C26.6097 29.9813 26.2354 30.7688 26.2354 31.725C26.2354 32.6813 26.6097 33.4688 27.3583 34.0875L46.1417 49.6125C46.55 49.95 46.9924 50.1885 47.4688 50.328C47.9451 50.4698 48.4556 50.5406 49 50.5406Z" fill="white"/>
</svg>
