<svg width="80" height="80" viewBox="0 0 80 80" fill="none" xmlns="http://www.w3.org/2000/svg">
<g clip-path="url(#clip0_76_24)">
<path fill-rule="evenodd" clip-rule="evenodd" d="M44.1688 0.330447C37.4717 -0.432775 32.4999 5.2394 32.4999 11.2452V13.7482C32.4999 20.3896 29.2662 24.3633 25.9123 26.8143C24.2712 28.0136 22.6107 28.8316 21.3196 29.3569C19.8043 26.7508 16.9818 24.9988 13.75 24.9988H8.75C3.91751 24.9988 0 28.9163 0 33.7488V71.249C0 76.0815 3.91751 79.999 8.75 79.999H13.75C17.6235 79.999 20.9091 77.482 22.0606 73.994C24.6831 74.3685 27.3972 75.1375 30.6868 76.069C31.4446 76.2835 32.2339 76.5075 33.0588 76.7365C38.8286 78.339 45.763 79.998 55 79.998C63.5285 79.998 69.848 79.2365 73.6075 74.302C75.373 71.9855 76.2925 69.092 76.9515 65.9415C77.538 63.137 77.9905 59.723 78.514 55.774L78.717 54.244C79.9625 44.9021 80.042 37.6542 77.774 32.6651C76.554 29.982 74.664 27.952 72.0915 26.6644C69.62 25.4272 66.7655 24.9982 63.75 24.9982H56.6385L56.7135 24.4365C57.062 21.8454 57.5 18.5895 57.5 16.2482C57.5 11.6405 56.7435 7.6551 54.222 4.75107C51.6655 1.80605 47.986 0.76546 44.1688 0.330447ZM22.5 66.4925C26.0266 66.935 29.4528 67.913 32.8605 68.886C33.5963 69.096 34.3312 69.306 35.0661 69.51C40.5462 71.0325 46.7368 72.498 55 72.498C63.971 72.498 66.4015 71.385 67.642 69.757C68.3765 68.7925 69.0195 67.2325 69.6105 64.4065C70.136 61.8945 70.548 58.786 71.083 54.7565L71.2825 53.2525C72.5375 43.8444 72.23 38.5923 70.9465 35.7689C70.39 34.5457 69.674 33.8413 68.7345 33.3712C67.694 32.8504 66.1315 32.4982 63.75 32.4982H54.998C51.572 32.4982 48.5251 29.6133 48.9721 25.8186C49.0849 24.8619 49.2174 23.8737 49.3493 22.8914C49.677 20.4492 49.9999 18.0432 49.9999 16.2482C49.9999 12.2052 49.278 10.4964 48.5588 9.668C47.8752 8.88055 46.5518 8.15055 43.3196 7.7822C41.7861 7.60745 39.9999 8.9673 39.9999 11.2453V13.7482C39.9999 23.3568 35.1086 29.3831 30.3375 32.8696C27.9872 34.5872 25.658 35.7041 23.924 36.3932C23.3941 36.6038 22.9144 36.7766 22.5 36.9159V66.4925ZM13.75 32.4988C14.4403 32.4988 15 33.0584 15 33.7488V69.998V71.249C15 71.939 14.4403 72.499 13.75 72.499H8.75C8.05965 72.499 7.5 71.939 7.5 71.249V33.7488C7.5 33.0584 8.05965 32.4988 8.75 32.4988H13.75Z" fill="#D71B3D"/>
</g>
<defs>
<clipPath id="clip0_76_24">
<rect width="80" height="80" fill="white"/>
</clipPath>
</defs>
</svg>
