<svg width="80" height="80" viewBox="0 0 80 80" fill="none" xmlns="http://www.w3.org/2000/svg">
<mask id="mask0_76_17" style="mask-type:luminance" maskUnits="userSpaceOnUse" x="0" y="0" width="80" height="80">
<path d="M80 0H0V80H80V0Z" fill="white"/>
</mask>
<g mask="url(#mask0_76_17)">
<path d="M45 45C45 47.7615 42.7615 50 40 50C37.2386 50 35 47.7615 35 45C35 42.2385 37.2386 40 40 40C42.7615 40 45 42.2385 45 45Z" fill="#D71B3D"/>
<path d="M43.75 18.75C43.75 16.679 42.0711 15 40 15C37.929 15 36.25 16.679 36.25 18.75V31.25C36.25 33.3211 37.929 35 40 35C42.0711 35 43.75 33.3211 43.75 31.25V18.75Z" fill="#D71B3D"/>
<path fill-rule="evenodd" clip-rule="evenodd" d="M0 8.75C0 3.91751 3.91751 0 8.75 0H71.25C76.0825 0 80 3.91751 80 8.75V56.25C80 61.0825 76.0825 65 71.25 65H40.3033L27.4372 77.866C26.0709 79.2325 24.2178 80 22.2855 80C18.2619 80 15 76.738 15 72.7145V65H8.75C3.91751 65 0 61.0825 0 56.25V8.75ZM8.75 7.5C8.05965 7.5 7.5 8.05965 7.5 8.75V56.25C7.5 56.9405 8.05965 57.5 8.75 57.5H18.75C20.8211 57.5 22.5 59.179 22.5 61.25V72.1965L36.0984 58.5985C36.8016 57.895 37.7555 57.5 38.75 57.5H71.25C71.9405 57.5 72.5 56.9405 72.5 56.25V8.75C72.5 8.05965 71.9405 7.5 71.25 7.5H8.75Z" fill="#D71B3D"/>
</g>
</svg>
