<svg width="80" height="80" viewBox="0 0 80 80" fill="none" xmlns="http://www.w3.org/2000/svg">
<g clip-path="url(#clip0_76_5)">
<mask id="mask0_76_5" style="mask-type:luminance" maskUnits="userSpaceOnUse" x="0" y="0" width="80" height="80">
<path d="M80 0H0V80H80V0Z" fill="white"/>
</mask>
<g mask="url(#mask0_76_5)">
<path fill-rule="evenodd" clip-rule="evenodd" d="M7.49994 13.75C7.49994 13.0597 8.05959 12.5 8.74994 12.5H71.2501C71.9406 12.5 72.5001 13.0597 72.5001 13.75V56.25C72.5001 56.9405 71.9406 57.5 71.2501 57.5H38.7499C37.7554 57.5 36.8015 57.895 36.0983 58.5985L22.4999 72.1965V61.25C22.4999 59.179 20.821 57.5 18.7499 57.5H8.74994C8.05959 57.5 7.49994 56.9405 7.49994 56.25V13.75ZM8.74994 5C3.91745 5 -6.10352e-05 8.9175 -6.10352e-05 13.75V56.25C-6.10352e-05 61.0825 3.91745 65 8.74994 65H14.9999V72.7145C14.9999 76.738 18.2618 80 22.2855 80C24.2177 80 26.0708 79.2325 27.4371 77.866L40.3032 65H71.2501C76.0826 65 80.0001 61.0825 80.0001 56.25V13.75C80.0001 8.9175 76.0826 5 71.2501 5H8.74994ZM33.9016 22.3483C35.366 23.8128 35.366 26.1872 33.9016 27.6517L26.5532 35L33.9016 42.3484C35.366 43.8128 35.366 46.1872 33.9016 47.6516C32.4371 49.1161 30.0627 49.1161 28.5983 47.6516L18.5983 37.6516C17.1338 36.1872 17.1338 33.8128 18.5983 32.3483L28.5983 22.3483C30.0627 20.8839 32.4371 20.8839 33.9016 22.3483ZM46.0983 22.3483C44.6338 23.8128 44.6338 26.1872 46.0983 27.6517L53.4466 35L46.0983 42.3484C44.6338 43.8128 44.6338 46.1872 46.0983 47.6516C47.5627 49.1161 49.9371 49.1161 51.4016 47.6516L61.4016 37.6516C62.8661 36.1872 62.8661 33.8128 61.4016 32.3483L51.4016 22.3483C49.9371 20.8839 47.5627 20.8839 46.0983 22.3483Z" fill="#D71B3D"/>
</g>
</g>
<defs>
<clipPath id="clip0_76_5">
<rect width="80" height="80" fill="white"/>
</clipPath>
</defs>
</svg>
