<svg width="22" height="24" viewBox="0 0 22 24" fill="none" xmlns="http://www.w3.org/2000/svg">
<path fill-rule="evenodd" clip-rule="evenodd" d="M3.125 2.73438C3.125 1.22422 4.34922 0 5.85938 0H14.5872C15.3124 0 16.0079 0.288084 16.5207 0.80088L21.0741 5.35434C21.5869 5.86714 21.875 6.56262 21.875 7.28783V20.7031C21.875 22.2133 20.6508 23.4375 19.1407 23.4375H8.20313C7.55592 23.4375 7.03125 22.9128 7.03125 22.2656C7.03125 21.6184 7.55592 21.0938 8.20313 21.0938H19.1407C19.3565 21.0938 19.5313 20.9189 19.5313 20.7031V9.375H15.2344C13.7242 9.375 12.5 8.15078 12.5 6.64062V2.34375H5.85938C5.64364 2.34375 5.46875 2.51864 5.46875 2.73438V7.03125C5.46875 7.67845 4.94408 8.20312 4.29688 8.20312C3.64967 8.20312 3.125 7.67845 3.125 7.03125V2.73438ZM14.8438 2.43984V6.64062C14.8438 6.85636 15.0186 7.03125 15.2344 7.03125H19.4352C19.4294 7.02452 19.4232 7.01797 19.4169 7.01163L14.8634 2.45816C14.857 2.45181 14.8505 2.4457 14.8438 2.43984ZM2.34375 19.1209C2.34375 17.1717 3.9295 15.5949 5.87883 15.6057L6.25 15.6077V18.6355C6.25 18.9766 6.65649 19.1537 6.90644 18.9217L11.4105 14.7393C11.5769 14.5848 11.5769 14.3214 11.4105 14.1668L6.90642 9.98453C6.65649 9.75244 6.25 9.9297 6.25 10.2708V13.264L5.8918 13.262C2.64327 13.244 0 15.872 0 19.1209V20.7031C0 21.3503 0.524665 21.875 1.17187 21.875C1.81908 21.875 2.34375 21.3503 2.34375 20.7031V19.1209Z" fill="white"/>
</svg>
